<?xml version="1.0" encoding="utf-8"?>
<!-- Generator: Adobe Illustrator 19.1.1, SVG Export Plug-In . SVG Version: 6.00 Build 0)  -->
<svg version="1.0" id="Camada_1" xmlns="http://www.w3.org/2000/svg" xmlns:xlink="http://www.w3.org/1999/xlink" x="0px" y="0px"
	 viewBox="0 0 376 134.4" style="enable-background:new 0 0 376 134.4;" xml:space="preserve">
<style type="text/css">
	.st0{fill-rule:evenodd;clip-rule:evenodd;fill:#E2A900;}
	.st1{fill-rule:evenodd;clip-rule:evenodd;fill:#002862;}
</style>
<g>
	<path class="st0" d="M70.6,3.7c0.9,0,1.7,0,2.6,0.1C41.6,6.9,16.9,33.6,16.9,65.9c0,34.4,28.1,62.5,62.5,62.5
		c4.3,0,8.4-0.4,12.4-1.2c-6.6,2.4-13.8,3.7-21.2,3.7c-35,0-63.6-28.6-63.6-63.6C7,32.2,35.5,3.7,70.6,3.7"/>
	<path class="st1" d="M321.3,56.8c-0.1,2.2-0.6,5.3-1.5,9.4c-0.2,0.7-0.3,1.2-0.4,1.6l-5,22.6h-20.8l-19.4-66.2h23.9l5.2,29.2
		c0.4,2.6,0.8,4.9,1,7c0.2,2.1,0.4,4.1,0.5,6h0.5c0.1-2.6,0.5-6.1,1.4-10.4c0.1-0.4,0.1-0.7,0.2-0.9l6.3-30.9h16.8l6.3,30.9
		c0,0.2,0.1,0.5,0.2,0.9c0.9,4.3,1.3,7.8,1.4,10.4h0.6c0-1.9,0.2-3.9,0.4-6c0.2-2.1,0.6-4.5,1-7l5.2-29.2h23.9l-19.4,66.2H329
		l-5-22.6c-0.1-0.4-0.2-0.9-0.4-1.6c-0.9-4-1.4-7.1-1.5-9.3H321.3z M220.1,84.6l7.6-18.5c3.4,2.4,6.4,4.1,9.1,5.2
		c2.7,1.1,5.2,1.7,7.5,1.7c1.6,0,2.9-0.3,3.8-0.9c0.9-0.6,1.4-1.5,1.4-2.5c0-1.8-2.3-3.2-7-4.2c-1.5-0.3-2.7-0.6-3.5-0.8
		c-4.9-1.2-8.7-3.4-11.3-6.4c-2.6-3.1-3.9-6.9-3.9-11.5c0-7.1,2.5-12.9,7.6-17.4c5.1-4.5,11.8-6.7,20-6.7c3.8,0,7.5,0.5,11.2,1.5
		c3.7,1,7.4,2.5,11.1,4.5l-7.2,17.3c-2.3-1.7-4.6-3-6.9-3.9c-2.3-0.9-4.5-1.3-6.7-1.3c-1.7,0-2.9,0.3-3.8,0.8
		c-0.9,0.6-1.4,1.3-1.4,2.3c0,1.9,3.3,3.5,9.9,4.9c1,0.2,1.9,0.4,2.4,0.6c4.6,1,8.1,3.1,10.8,6.3c2.6,3.2,3.9,7,3.9,11.5
		c0,7.3-2.6,13.3-7.9,18c-5.3,4.6-12.2,7-20.7,7c-4.3,0-8.7-0.6-13-1.9C228.7,89,224.4,87.1,220.1,84.6z M191,66.6h-10.4V51h36.6
		c0.1,1.4,0.1,2.4,0.1,3c0,0.7,0,1.2,0,1.8c0,3.8-0.4,7.3-1.1,10.4c-0.7,3.1-1.8,5.9-3.2,8.3c-3.4,5.7-7.7,10-13.1,13
		c-5.3,3-11.4,4.5-18.2,4.5c-5,0-9.7-0.8-14-2.5c-4.3-1.7-8.1-4.1-11.4-7.4c-3.3-3.3-5.8-7-7.5-11.2c-1.7-4.2-2.5-8.8-2.5-13.7
		c0-4.9,0.8-9.5,2.6-13.7c1.7-4.2,4.2-7.9,7.4-11.1c3.3-3.2,7.1-5.7,11.4-7.4c4.3-1.7,9-2.5,14-2.5c6.8,0,12.8,1.5,18.1,4.5
		c5.3,3,9.6,7.3,12.9,13L191.7,48c-1.1-1.8-2.5-3.2-4-4.1c-1.6-0.9-3.4-1.4-5.4-1.4c-3.5,0-6.3,1.3-8.4,4c-2.1,2.7-3.1,6.3-3.1,10.8
		c0,4.7,1.1,8.3,3.2,10.9c2.1,2.6,5.1,3.9,9,3.9c2.3,0,4.2-0.5,5.6-1.5C189.9,69.7,190.7,68.3,191,66.6z"/>
	<path class="st0" d="M88.2,46.4c6.5,1.2,12.4,7.2,13.5,13.8c0.8,7.2-4,13.1-11.1,12.9c-7.9-0.2-14.8-7.2-15-15.3
		C75.2,50.4,81.1,45.5,88.2,46.4"/>
	<path class="st1" d="M358.6,109.3c-0.2-0.3-0.4-0.5-0.6-0.7c-0.2-0.2-0.5-0.3-0.7-0.4c0,0-0.1,0-0.1,0c0,0-0.1,0-0.1,0
		c-0.3,0-0.6,0.1-0.8,0.3c-0.2,0.2-0.3,0.5-0.4,0.8c0,0,0,0,0,0.1s0,0,0,0.1c0,0,0,0,0,0.1c0,0,0,0,0,0.1c0,0.4,0.2,0.7,0.6,1
		c0.3,0.3,0.8,0.5,1.2,0.7c0.1,0.1,0.3,0.1,0.5,0.2c0.2,0.1,0.3,0.1,0.5,0.2c0.7,0.3,1.3,0.7,1.9,1.2c0.6,0.5,0.8,1.2,0.8,2.3
		c0,0.1,0,0.2,0,0.3c0,0.1,0,0.2,0,0.3c-0.1,0.8-0.6,1.6-1.4,2.2c-0.8,0.7-1.7,1-2.6,1c-1.1,0-2-0.2-2.6-0.7c-0.6-0.4-1-0.9-1.3-1.5
		c0-0.1-0.1-0.1-0.1-0.2c0-0.1-0.1-0.1-0.1-0.2l1.9-1c0.1,0.4,0.3,0.8,0.7,1c0.4,0.3,0.8,0.4,1.2,0.5c0,0,0.1,0,0.1,0
		c0,0,0.1,0,0.1,0c0.4,0,0.7-0.1,1.1-0.3c0.3-0.2,0.5-0.5,0.6-1c0,0,0,0,0,0c0,0,0,0,0,0c0,0,0,0,0,0c0,0,0,0,0,0
		c0-0.4-0.2-0.8-0.6-1.1c-0.4-0.4-0.8-0.7-1.3-1c-0.1-0.1-0.2-0.1-0.3-0.2c-0.1-0.1-0.2-0.1-0.3-0.2c0,0,0,0-0.1,0c0,0-0.1,0-0.1,0
		c-0.9-0.4-1.6-0.8-2-1.3c-0.4-0.5-0.6-1.1-0.6-2c0-0.1,0-0.2,0-0.2c0-0.1,0-0.2,0-0.2c0.1-0.6,0.4-1.2,1-1.7
		c0.5-0.5,1.3-0.8,2.3-0.8c0.8,0,1.4,0.1,1.9,0.4c0.5,0.3,1,0.7,1.4,1.3L358.6,109.3z M348.7,112.3c0-1-0.3-1.9-0.8-2.7
		c-0.5-0.8-1.4-1.2-2.7-1.2c-1.2,0-2.1,0.3-2.7,1c-0.6,0.7-1,1.7-1,3.1c0,1.2,0.3,2.2,1,3c0.7,0.8,1.4,1.2,2.3,1.2
		c1.3,0,2.2-0.4,2.9-1.1C348.4,114.7,348.7,113.7,348.7,112.3L348.7,112.3z M348.7,106.5h2.3v11.9h-2.3v-2c-0.4,0.6-0.9,1.1-1.4,1.6
		c-0.6,0.4-1.5,0.6-2.6,0.6c-1.6,0-3-0.5-4-1.6c-1-1-1.5-2.6-1.5-4.5c0-2,0.6-3.5,1.7-4.6c1.1-1.1,2.3-1.7,3.7-1.7c0,0,0,0,0,0
		c0,0,0,0,0,0c0.3,0,0.6,0,0.9,0.1c0.3,0.1,0.6,0.1,1,0.3c0.4,0.2,0.8,0.4,1.2,0.7c0.4,0.3,0.7,0.7,1,1.2V106.5z M334.5,112.3
		c0-1.3-0.3-2.3-0.9-3c-0.6-0.7-1.5-1.1-2.6-1.1c-1.1,0-1.9,0.4-2.5,1.1c-0.6,0.7-0.9,1.5-1.1,2.4c0,0.2-0.1,0.4-0.1,0.6
		c0,0.2,0,0.4,0,0.6c0,0.2,0,0.5,0.1,0.8c0,0.3,0.1,0.6,0.2,0.9c0.2,0.6,0.6,1.2,1.1,1.7c0.5,0.5,1.3,0.8,2.3,0.8
		c1.1,0,1.9-0.4,2.4-1.1c0.5-0.7,0.8-1.5,1-2.4c0-0.2,0.1-0.4,0.1-0.6C334.5,112.7,334.5,112.5,334.5,112.3L334.5,112.3z
		 M334.5,96.4h2.3v22h-2.1v-2c-0.2,0.4-0.5,0.8-0.8,1.1c-0.3,0.3-0.6,0.5-0.9,0.7c-0.4,0.2-0.8,0.4-1.2,0.5c-0.4,0.1-0.7,0.1-1,0.1
		c0,0-0.1,0-0.1,0c0,0-0.1,0-0.1,0c-1.4,0-2.6-0.4-3.4-1.2c-0.8-0.8-1.4-1.7-1.7-2.7c-0.1-0.4-0.2-0.8-0.3-1.1
		c-0.1-0.4-0.1-0.7-0.1-1.1c0-2.1,0.5-3.7,1.6-4.8c1.1-1,2.2-1.6,3.5-1.7c0.1,0,0.2,0,0.3,0c0.1,0,0.2,0,0.3,0c0.2,0,0.4,0,0.6,0
		c0.2,0,0.4,0.1,0.6,0.1c0.5,0.1,1,0.4,1.5,0.7c0.5,0.3,0.9,0.8,1.1,1.3V96.4z M321.2,112.3c0-1-0.3-1.9-0.8-2.7
		c-0.5-0.8-1.4-1.2-2.7-1.2c-1.2,0-2.1,0.3-2.7,1c-0.6,0.7-1,1.7-1,3.1c0,1.2,0.3,2.2,1,3c0.7,0.8,1.4,1.2,2.3,1.2
		c1.3,0,2.2-0.4,2.9-1.1C320.8,114.7,321.2,113.7,321.2,112.3L321.2,112.3z M321.2,106.5h2.3v11.9h-2.3v-2c-0.4,0.6-0.9,1.1-1.4,1.6
		c-0.6,0.4-1.5,0.6-2.6,0.6c-1.6,0-3-0.5-4-1.6c-1-1-1.5-2.6-1.5-4.5c0-2,0.6-3.5,1.7-4.6c1.1-1.1,2.3-1.7,3.7-1.7c0,0,0,0,0,0
		c0,0,0,0,0,0c0.3,0,0.6,0,0.9,0.1c0.3,0.1,0.6,0.1,1,0.3c0.4,0.2,0.8,0.4,1.2,0.7c0.4,0.3,0.7,0.7,1,1.2V106.5z M306,106.7v1.8
		c0.5-0.7,1-1.2,1.5-1.5c0.5-0.3,1.1-0.5,1.6-0.5c0.3,0,0.6,0,0.9,0.1c0.3,0.1,0.6,0.2,1,0.3l-1.2,2.2c-0.1-0.1-0.3-0.2-0.5-0.3
		c-0.2-0.1-0.3-0.1-0.5-0.2c-0.1,0-0.2,0-0.2,0c-0.1,0-0.2,0-0.2,0c-0.6,0-1.1,0.2-1.6,0.7c-0.5,0.5-0.7,1.2-0.8,2.2v6.9h-2.3v-11.7
		H306z M299.1,112.5c0-1.3-0.3-2.3-0.8-2.9c-0.6-0.6-1.2-1.1-1.8-1.2c-0.2-0.1-0.4-0.1-0.5-0.1c-0.2,0-0.3,0-0.5,0
		c-1.2,0-2.2,0.4-2.8,1.3c-0.6,0.9-0.9,1.9-0.9,3c0,1.1,0.3,2.1,0.9,3c0.6,0.9,1.5,1.4,2.6,1.4c1,0,1.9-0.3,2.7-1
		c0.8-0.6,1.2-1.6,1.2-3c0,0,0-0.1,0-0.1c0,0,0-0.1,0-0.1c0,0,0-0.1,0-0.1C299.1,112.6,299.1,112.5,299.1,112.5L299.1,112.5z
		 M298.9,108.5v-1.8h2.3v11.7c0,2.7-0.5,4.5-1.5,5.3c-1,0.8-2.1,1.3-3.3,1.4c-0.2,0-0.3,0-0.5,0c-0.2,0-0.3,0-0.5,0
		c-1.6,0-3-0.5-4-1.5c-1-1-1.5-2.3-1.5-3.9h2.1c0,0.2,0,0.4,0,0.7c0,0.3,0.1,0.5,0.2,0.8c0.2,0.5,0.5,0.9,1,1.3
		c0.5,0.4,1.2,0.6,2.3,0.6c0.1,0,0.2,0,0.2,0c0.1,0,0.2,0,0.2,0c0.7-0.1,1.4-0.4,1.9-0.9c0.6-0.5,0.9-1.3,0.9-2.5v-3
		c-0.1,0.1-0.1,0.2-0.2,0.3c-0.1,0.1-0.2,0.2-0.2,0.3c-0.3,0.3-0.7,0.6-1.2,0.9c-0.5,0.3-1.4,0.4-2.6,0.4c-1.5,0-2.8-0.6-3.8-1.8
		c-1-1.2-1.5-2.8-1.5-4.7c0-0.1,0-0.2,0-0.3c0-0.1,0-0.2,0-0.3c0.1-1.4,0.7-2.7,1.7-3.9c1-1.2,2.3-1.7,4-1.7c0.2,0,0.5,0,0.9,0.1
		c0.3,0.1,0.7,0.2,1.1,0.4c0.4,0.2,0.7,0.4,1,0.7C298.3,107.7,298.6,108.1,298.9,108.5L298.9,108.5z M286.1,111.1
		c-0.1-0.9-0.4-1.6-1-2.2c-0.6-0.6-1.3-0.9-2.1-0.9c-0.2,0-0.4,0-0.6,0.1c-0.2,0-0.4,0.1-0.6,0.2c-0.5,0.2-0.9,0.5-1.3,1
		c-0.4,0.5-0.7,1.1-0.8,2L286.1,111.1z M286.3,114.5l1.9,1c-0.1,0.2-0.2,0.4-0.3,0.5c-0.1,0.2-0.2,0.3-0.3,0.5
		c-0.4,0.6-1,1.1-1.7,1.6c-0.7,0.5-1.8,0.7-3.1,0.7c-1.6,0-2.8-0.6-3.8-1.8c-1-1.2-1.5-2.5-1.6-4c0-0.1,0-0.2,0-0.3
		c0-0.1,0-0.2,0-0.3c0-0.1,0-0.1,0-0.2c0-0.1,0-0.1,0-0.2c0.1-1.6,0.6-3,1.5-4.3c0.9-1.3,2.3-1.9,4.1-1.9c1.6,0,2.8,0.5,3.6,1.4
		c0.8,0.9,1.4,1.9,1.6,3c0.1,0.3,0.1,0.7,0.2,1c0,0.3,0.1,0.7,0.1,1c0,0.1,0,0.2,0,0.3c0,0.1,0,0.2,0,0.3l-8.7,0c0,1.1,0.3,2,1,2.7
		c0.7,0.7,1.5,1.1,2.5,1.1c0.1,0,0.2,0,0.4,0c0.1,0,0.3,0,0.4-0.1c0.5-0.1,0.9-0.4,1.4-0.7C285.7,115.5,286,115,286.3,114.5
		L286.3,114.5z M272.7,106.7v-4.4h2.1v4.4h2.3v2.2h-2.3v9.5h-2.1v-9.5h-1.4v-2.2H272.7z M259.5,106.7h2.1v1.6
		c0.3-0.3,0.5-0.5,0.7-0.7c0.2-0.2,0.4-0.4,0.6-0.5c0.3-0.2,0.6-0.4,1-0.5c0.4-0.1,0.8-0.2,1.4-0.3c0.2,0,0.4,0,0.5,0
		c0.2,0,0.4,0.1,0.6,0.1c0.7,0.2,1.4,0.6,2,1.2c0.6,0.6,0.9,1.6,0.9,2.8v7.9h-2.3v-7.9c0-0.6-0.2-1.1-0.6-1.4
		c-0.4-0.4-0.9-0.6-1.4-0.7c-0.1,0-0.1,0-0.2,0c-0.1,0-0.2,0-0.2,0c0,0,0,0,0,0c0,0,0,0,0,0c-0.7,0-1.3,0.3-1.8,0.8
		c-0.6,0.5-0.8,1.4-0.8,2.5v6.7h-2.3V106.7z M253.9,99.6h2.3v18.8h-2.3V99.6z M242.1,109.3c-0.2-0.3-0.4-0.5-0.6-0.7
		c-0.2-0.2-0.5-0.3-0.7-0.4c0,0-0.1,0-0.1,0c0,0-0.1,0-0.1,0c-0.3,0-0.6,0.1-0.8,0.3c-0.2,0.2-0.3,0.5-0.4,0.8c0,0,0,0,0,0.1
		s0,0,0,0.1c0,0,0,0,0,0.1c0,0,0,0,0,0.1c0,0.4,0.2,0.7,0.6,1c0.3,0.3,0.8,0.5,1.2,0.7c0.1,0.1,0.3,0.1,0.5,0.2
		c0.2,0.1,0.3,0.1,0.5,0.2c0.7,0.3,1.3,0.7,1.9,1.2c0.6,0.5,0.8,1.2,0.8,2.3c0,0.1,0,0.2,0,0.3c0,0.1,0,0.2,0,0.3
		c-0.1,0.8-0.6,1.6-1.4,2.2c-0.8,0.7-1.7,1-2.6,1c-1.1,0-2-0.2-2.6-0.7c-0.6-0.4-1-0.9-1.3-1.5c0-0.1-0.1-0.1-0.1-0.2
		c0-0.1-0.1-0.1-0.1-0.2l1.9-1c0.1,0.4,0.3,0.8,0.7,1c0.4,0.3,0.8,0.4,1.2,0.5c0,0,0.1,0,0.1,0c0,0,0.1,0,0.1,0
		c0.4,0,0.7-0.1,1.1-0.3c0.3-0.2,0.5-0.5,0.6-1c0,0,0,0,0,0c0,0,0,0,0,0c0,0,0,0,0,0c0,0,0,0,0,0c0-0.4-0.2-0.8-0.6-1.1
		c-0.4-0.4-0.8-0.7-1.3-1c-0.1-0.1-0.2-0.1-0.3-0.2c-0.1-0.1-0.2-0.1-0.3-0.2c0,0,0,0-0.1,0c0,0-0.1,0-0.1,0c-0.9-0.4-1.6-0.8-2-1.3
		c-0.4-0.5-0.6-1.1-0.6-2c0-0.1,0-0.2,0-0.2c0-0.1,0-0.2,0-0.2c0.1-0.6,0.4-1.2,1-1.7c0.5-0.5,1.3-0.8,2.3-0.8
		c0.8,0,1.4,0.1,1.9,0.4c0.5,0.3,1,0.7,1.4,1.3L242.1,109.3z M233.2,111.1c-0.1-0.9-0.4-1.6-1-2.2c-0.6-0.6-1.3-0.9-2.1-0.9
		c-0.2,0-0.4,0-0.6,0.1c-0.2,0-0.4,0.1-0.6,0.2c-0.5,0.2-0.9,0.5-1.3,1c-0.4,0.5-0.7,1.1-0.8,2L233.2,111.1z M233.4,114.5l1.9,1
		c-0.1,0.2-0.2,0.4-0.3,0.5c-0.1,0.2-0.2,0.3-0.3,0.5c-0.4,0.6-1,1.1-1.7,1.6c-0.7,0.5-1.8,0.7-3.1,0.7c-1.6,0-2.8-0.6-3.8-1.8
		c-1-1.2-1.5-2.5-1.6-4c0-0.1,0-0.2,0-0.3c0-0.1,0-0.2,0-0.3c0-0.1,0-0.1,0-0.2c0-0.1,0-0.1,0-0.2c0.1-1.6,0.6-3,1.5-4.3
		c0.9-1.3,2.3-1.9,4.1-1.9c1.6,0,2.8,0.5,3.6,1.4c0.8,0.9,1.4,1.9,1.6,3c0.1,0.3,0.1,0.7,0.2,1c0,0.3,0.1,0.7,0.1,1
		c0,0.1,0,0.2,0,0.3c0,0.1,0,0.2,0,0.3l-8.7,0c0,1.1,0.3,2,1,2.7c0.7,0.7,1.5,1.1,2.5,1.1c0.1,0,0.2,0,0.4,0c0.1,0,0.3,0,0.4-0.1
		c0.5-0.1,0.9-0.4,1.4-0.7C232.8,115.5,233.1,115,233.4,114.5L233.4,114.5z M220.2,101.2l1.2,1c-0.2,0.6-0.6,1.2-1.2,1.6
		c-0.6,0.4-1.2,0.6-1.8,0.6c-0.1,0-0.2,0-0.3,0c-0.1,0-0.2,0-0.3,0c-0.1,0-0.2,0-0.3,0c-0.1,0-0.2-0.1-0.3-0.1
		c-0.2-0.1-0.4-0.1-0.5-0.2c-0.2-0.1-0.3-0.2-0.5-0.2c-0.3-0.2-0.6-0.3-0.9-0.5c-0.3-0.1-0.6-0.2-0.8-0.2c-0.1,0-0.3,0-0.4,0.1
		c-0.1,0-0.3,0.1-0.4,0.2c-0.1,0.1-0.3,0.2-0.4,0.4c-0.1,0.2-0.3,0.3-0.4,0.5l-1.2-1.2c0.4-0.6,0.9-1.1,1.4-1.4
		c0.5-0.3,1-0.5,1.6-0.5c0.1,0,0.2,0,0.3,0c0.1,0,0.2,0,0.3,0.1c0.1,0,0.2,0.1,0.3,0.1c0.1,0.1,0.2,0.1,0.3,0.2c0,0,0.1,0,0.1,0.1
		c0,0,0.1,0,0.1,0.1c0.4,0.2,0.8,0.4,1.1,0.6c0.4,0.2,0.7,0.3,1.1,0.3c0.3,0,0.6-0.1,0.8-0.3C219.6,101.9,219.9,101.6,220.2,101.2
		L220.2,101.2z M220.5,112.3c0,0.1,0-0.1-0.1-0.5c-0.1-0.4-0.2-0.8-0.5-1.3c-0.3-0.5-0.7-0.9-1.2-1.2c-0.5-0.4-1.2-0.6-2.1-0.6
		c-1.4,0-2.5,0.4-3,1.2c-0.6,0.8-0.9,1.7-0.9,2.7c0.1,1.2,0.4,2,1.1,2.7c0.6,0.6,1.3,1,2.1,1.2c0.2,0,0.3,0.1,0.5,0.1
		c0.1,0,0.3,0,0.4,0c1,0,1.8-0.4,2.5-1.1c0.7-0.7,1.1-1.6,1.2-2.4c0-0.1,0-0.2,0-0.2c0-0.1,0-0.1,0-0.2c0,0,0-0.1,0-0.1
		c0,0,0-0.1,0-0.1c0,0,0-0.1,0-0.1C220.5,112.4,220.5,112.3,220.5,112.3L220.5,112.3z M210.5,112.5c0-0.1,0-0.3,0-0.4
		c0-0.2,0-0.3,0-0.5c0.2-1.2,0.8-2.4,1.8-3.4c1-1,2.4-1.6,4.3-1.6c0.3,0,0.7,0,1,0.1c0.4,0.1,0.8,0.1,1.1,0.3c1,0.3,1.9,0.9,2.7,1.7
		c0.8,0.8,1.3,2,1.3,3.5c0,0.1,0,0.1,0,0.2c0,0.1,0,0.1,0,0.2c0,0.2,0,0.4,0,0.6c0,0.2-0.1,0.4-0.1,0.6c-0.3,1.3-0.9,2.4-1.9,3.5
		c-1,1.1-2.4,1.6-4.2,1.6c-1.8,0-3.2-0.4-4.1-1.2c-0.9-0.8-1.5-1.6-1.8-2.6c-0.1-0.5-0.2-0.9-0.3-1.3
		C210.5,113.2,210.5,112.8,210.5,112.5L210.5,112.5z M209.7,115.2v3c-0.4,0.2-0.9,0.4-1.4,0.5c-0.5,0.1-1,0.2-1.6,0.2
		c-0.1,0-0.1,0-0.2,0c-0.1,0-0.1,0-0.2,0c-1.5-0.1-2.8-0.6-4.1-1.6c-1.2-1-1.8-2.5-1.8-4.6c0-2.2,0.6-3.8,1.9-4.9
		c1.3-1.1,2.7-1.6,4.3-1.6c0.2,0,0.4,0,0.6,0c0.2,0,0.4,0,0.6,0.1c0.4,0.1,0.8,0.1,1.1,0.3c0.4,0.1,0.7,0.3,1.1,0.4v2.9
		c-0.2-0.3-0.4-0.5-0.6-0.7c-0.2-0.2-0.4-0.3-0.7-0.5c-0.5-0.2-0.9-0.3-1.3-0.4c-0.4,0-0.7-0.1-0.9-0.1c-1.2,0.1-2.2,0.6-2.8,1.4
		c-0.6,0.8-0.9,1.8-1,2.8c0,0,0,0,0,0c0,0,0,0,0,0c0,1,0.3,2,0.9,2.8c0.6,0.8,1.5,1.3,2.7,1.3c0,0,0,0,0,0s0,0,0,0c0,0,0,0,0,0
		c0,0,0,0,0,0c0.2,0,0.5,0,1-0.1c0.5-0.1,1.1-0.3,1.7-0.7c0.1-0.1,0.2-0.2,0.3-0.3C209.5,115.5,209.6,115.4,209.7,115.2L209.7,115.2
		z M205.2,119l1.7,0.6l-2.5,3.4l-1.4-0.6L205.2,119z M195.7,106.7h2.3v6.7c0,0,0,0.1,0,0.1c0,0,0,0,0,0c0,1.4-0.4,2.6-1.1,3.8
		c-0.7,1.1-2,1.7-3.7,1.7c-1.3,0-2.5-0.4-3.5-1.3c-1-0.9-1.5-2.1-1.5-3.8v-7.2h2.3v6.5c0,0.2,0,0.4,0,0.6c0,0.2,0.1,0.4,0.1,0.6
		c0.1,0.6,0.4,1.1,0.8,1.6c0.4,0.5,1,0.7,1.8,0.7c1,0,1.6-0.3,2-0.9c0.4-0.6,0.5-1.4,0.5-2.4V106.7z M183.1,96.6h2.3v21.8h-2.3V96.6
		z M178.7,112.1c0,0.1,0-0.1-0.1-0.5c-0.1-0.4-0.2-0.8-0.5-1.3c-0.3-0.5-0.7-0.9-1.2-1.2c-0.5-0.4-1.2-0.6-2.1-0.6
		c-1.5,0-2.5,0.4-3,1.2c-0.6,0.8-0.8,1.7-0.8,2.7c0.1,1.1,0.4,2,1.1,2.6c0.6,0.6,1.3,1,2.1,1.2c0.1,0.1,0.3,0.1,0.5,0.1
		c0.2,0,0.3,0,0.5,0c1,0,1.9-0.4,2.5-1.1c0.7-0.7,1.1-1.6,1.2-2.4c0-0.1,0-0.2,0-0.2c0-0.1,0-0.1,0-0.2c0,0,0-0.1,0-0.1
		c0,0,0-0.1,0-0.1c0,0,0-0.1,0-0.1C178.7,112.2,178.7,112.1,178.7,112.1L178.7,112.1z M168.6,112.3c0-0.1,0-0.3,0-0.4
		c0-0.2,0-0.3,0.1-0.5c0.2-1.2,0.8-2.4,1.8-3.4c1-1,2.4-1.6,4.3-1.6c0.3,0,0.7,0,1,0.1c0.4,0.1,0.8,0.1,1.1,0.3
		c1,0.3,1.9,0.9,2.7,1.7c0.8,0.8,1.3,2,1.3,3.5c0,0,0,0,0,0.1c0,0,0,0.1,0,0.1c0,0,0,0.1,0,0.1c0,0,0,0.1,0,0.1c0,0.2,0,0.4,0,0.6
		c0,0.2-0.1,0.4-0.1,0.6c-0.3,1.3-0.9,2.5-1.9,3.5c-1,1.1-2.4,1.6-4.2,1.6c-1.9,0-3.2-0.4-4.1-1.2c-0.9-0.8-1.5-1.7-1.7-2.6
		c-0.1-0.5-0.2-0.9-0.3-1.3C168.6,113,168.6,112.6,168.6,112.3L168.6,112.3z M164.9,103c-0.2-0.3-0.3-0.5-0.5-0.7
		c-0.2-0.2-0.4-0.4-0.5-0.5c-0.3-0.3-0.7-0.4-1-0.5c-0.3-0.1-0.6-0.1-0.9-0.1c-0.9,0-1.7,0.3-2.3,0.8c-0.6,0.5-0.8,1.2-0.8,1.8
		c0,0.4,0.1,0.9,0.4,1.3c0.3,0.4,0.7,0.8,1.3,1c0.3,0.1,0.7,0.3,1.3,0.6c0.6,0.2,1.2,0.5,1.8,0.9c0.7,0.4,1.4,0.8,2,1.3
		c0.6,0.5,1,1,1.2,1.6c0.1,0.4,0.2,0.7,0.3,1.1c0.1,0.4,0.1,0.7,0.1,1c0,1.6-0.5,3.1-1.6,4.3c-1.1,1.3-2.4,1.9-4,1.9
		c0,0-0.1,0-0.1,0c0,0-0.1,0-0.1,0c-1.4,0-2.7-0.5-3.9-1.6c-1.2-1.1-1.7-2.3-1.7-3.7l2.1-0.6c0.2,1.3,0.6,2.2,1.3,2.8
		c0.7,0.6,1.4,0.9,2.3,0.9c0.8,0,1.5-0.2,2.2-0.8c0.7-0.5,1.1-1.3,1.4-2.3c0-0.1,0.1-0.3,0.1-0.4c0-0.1,0-0.2,0-0.4
		c0-0.9-0.3-1.6-1-2.1c-0.6-0.5-1.3-1-2.1-1.4c-0.1-0.1-0.2-0.1-0.4-0.2c-0.1-0.1-0.2-0.1-0.4-0.2c-0.1,0-0.2-0.1-0.2-0.1
		c-0.1,0-0.1-0.1-0.2-0.1c-1.1-0.5-2.1-1-3-1.7c-0.9-0.7-1.4-1.8-1.4-3.2c0-0.3,0-0.6,0.1-0.9c0.1-0.3,0.2-0.7,0.4-1
		c0.3-0.7,0.9-1.4,1.6-1.9c0.7-0.6,1.7-0.9,2.9-0.9c1,0,1.8,0.1,2.4,0.3c0.6,0.2,1.2,0.6,1.8,1.2c0.2,0.2,0.3,0.4,0.5,0.6
		c0.2,0.2,0.3,0.4,0.5,0.7L164.9,103z"/>
	<path class="st1" d="M58.3,28.6c5.9-0.3,11.1,1.3,11.4,4.2c0.3,4.2-5.7,8.3-13.4,8.6c-7.4,0.6-12.1-2.7-10.8-6.7
		C46.9,31.9,52.6,29.4,58.3,28.6 M82.5,30.7c4.9,1.8,10.3,4.8,12.4,7.4c2,3.7-1.1,6.2-7.4,4.9c-6.9-1-13.3-5.7-13.9-9.9
		C73,30.1,77.2,29.3,82.5,30.7z M109.4,51.4c-0.2-0.1-0.6-0.5-1.3-1.1c-3.3-2.2-8.4-7.4-10.6-11c-0.7-0.9-1.1-1.4-1.2-1.6
		C101.5,41.5,105.9,46.1,109.4,51.4z M56,45c7.9-0.2,14.5,5.3,14.6,12.7c0.1,8.1-6.9,15-15.6,15.1c-8.4,0.1-14.5-6.4-14-14.1
		C41.9,51.5,48.5,45.6,56,45z M88.2,46.4c6.5,1.2,12.4,7.2,13.5,13.8c0.8,7.2-4,13.1-11.1,12.9c-7.9-0.2-14.8-7.2-15-15.3
		C75.2,50.4,81.1,45.5,88.2,46.4z M109.4,53.1c2.3,2.1,5,7.4,6.6,12.4c1.2,5.4,0.6,9.6-2,9.1c-3.8-0.4-8.2-6.7-9.1-13.7
		C103.6,54.4,106,51.1,109.4,53.1z M55,77.8c8.7,0,15.8,7.1,15.8,15.7c-0.1,8.2-7,14.6-15.2,14.4c-8-0.4-14.6-7-15.1-14.9
		C40.2,84.7,46.6,77.8,55,77.8z M90.7,77.9c7.2,0.1,12.4,6.5,12,14.2c-0.7,7.3-6.5,13.8-13.3,14.7c-7.5,0.7-13.8-5.2-13.5-13.4
		C75.9,84.8,82.8,77.8,90.7,77.9z M114.2,78.4c2.6,0.2,3.8,5.1,3.3,10.8c-1,5.5-3.3,11-5.8,12.6c-3.6,1.5-6.5-2.9-5.7-10
		C106.3,84.3,110.3,78.3,114.2,78.4z M77.6,11.9c31.2,0,56.7,25.5,56.7,56.7c0,22.5-13.3,42.1-32.4,51.2c-0.3,0.2-0.7,0.3-1,0.5
		c0.6-0.5,1.2-1.1,1.7-1.6c3.9-3.8,7.2-8.3,9.7-13.2c0.3-1-0.2-1.2-1.6-0.2c-3.5,1.7-8.5,7.5-10.4,12.4l0,0.1l0,0l0,0l-0.1,0.1l0,0
		l0,0l0,0l0,0.1l0,0.1l-0.1,0.1l0,0l0,0.1l0,0l-0.1,0.2l0,0.1l0,0.1l0,0l0,0.1l-0.1,0.1l0,0l0,0.1l0,0l0,0.1l0,0l-0.1,0.3v0l0,0.2
		l0,0l0,0.1c-0.1,0.4-0.1,0.7-0.1,0.9l0,0l0,0l0,0l0,0.1l0,0l0,0l0,0v0l0,0l0,0l0,0c-1.6,0.7-3.3,1.3-5,1.8c1.4-1.3,2.5-2.7,3.1-4
		c1.7-5-2-8.7-8.6-7.7c-7.3,0.8-14.1,6.5-14.5,12.1c-0.1,0.8,0,1.5,0.2,2.1c-1.6-0.1-3.2-0.2-4.7-0.5c0.2-0.4,0.2-0.9,0.3-1.4
		c0.2-5.6-6.2-10.8-14.3-11.1c-4.4-0.3-7.9,1-10,3.2c-5-3.4-9.5-7.6-13.2-12.4c2.4-2,3.9-5.6,3.6-10.2c-0.3-8.1-5.9-14.8-11.8-14.6
		c-0.9,0-1.7,0.2-2.5,0.6c-0.3-1.9-0.6-3.8-0.8-5.8c1,0.6,2.1,0.9,3.4,0.8c5.9-0.3,11.8-7.1,12.4-14.7c0.9-7-3.3-11.1-8.6-9.5
		c-1.9,0.8-3.7,2.2-5.4,4.1c0.7-2.4,1.5-4.8,2.5-7.1c0.2,0.9,1.5,0.9,4-0.2c5.2-1.7,11.3-6.9,12.8-10.8c1.2-2.1,0.2-2.6-1.9-1.8
		c-5.2,2.8-9.8,6.3-13.8,10.6C35.4,25.2,55,11.9,77.6,11.9z"/>
</g>
</svg>
